<!DOCTYPE svg PUBLIC "-//W3C//DTD SVG 1.1//EN" "http://www.w3.org/Graphics/SVG/1.1/DTD/svg11.dtd">
<!-- Uploaded to: SVG Repo, www.svgrepo.com, Transformed by: SVG Repo Mixer Tools -->
<svg fill="#000000" width="800px" height="800px" viewBox="-2.4 -2.4 28.80 28.80" id="date-chart" data-name="Flat Line" xmlns="http://www.w3.org/2000/svg" class="icon flat-line">
<g id="SVGRepo_bgCarrier" stroke-width="0"/>
<g id="SVGRepo_tracerCarrier" stroke-linecap="round" stroke-linejoin="round"/>
<g id="SVGRepo_iconCarrier">
<path id="secondary" d="M3,9V20a1,1,0,0,0,1,1H20a1,1,0,0,0,1-1V9Zm9,9a3,3,0,0,1,0-6v3h3A3,3,0,0,1,12,18Z" style="fill: #887cfc; stroke-width:1.08;"/>
<path id="primary" d="M20,21H4a1,1,0,0,1-1-1V9H21V20A1,1,0,0,1,20,21ZM21,5a1,1,0,0,0-1-1H4A1,1,0,0,0,3,5V9H21ZM16,3V6M8,3V6m4,9V12a3,3,0,1,0,3,3Z" style="fill: none; stroke: #887cfc; stroke-linecap: round; stroke-linejoin: round; stroke-width:1.08;"/>
</g>
</svg>